<svg width="24" height="24" viewBox="0 0 24 24" fill="none" xmlns="http://www.w3.org/2000/svg">
<path d="M21.3223 9.26851C21.6996 8.88039 21.6996 8.26247 21.3223 7.87435L19.2554 5.74843C18.6359 5.1112 17.5556 5.5498 17.5556 6.43855C17.5556 6.98532 17.1123 7.42857 16.5655 7.42857H10.7778C10.2255 7.42857 9.77778 7.87629 9.77778 8.42857V8.71429C9.77778 9.26657 10.2255 9.71429 10.7778 9.71429H16.5655C17.1123 9.71429 17.5556 10.1575 17.5556 10.7043C17.5556 11.5931 18.6359 12.0317 19.2554 11.3944L21.3223 9.26851ZM6.44444 13.2957C6.44444 12.4069 5.36411 11.9683 4.74458 12.6056L2.67771 14.7315C2.30037 15.1196 2.30037 15.7375 2.67772 16.1257L4.74459 18.2516C5.36412 18.8888 6.44444 18.4502 6.44444 17.5615C6.44444 17.0147 6.88769 16.5714 7.43447 16.5714H13.2222C13.7745 16.5714 14.2222 16.1237 14.2222 15.5714V15.2857C14.2222 14.7334 13.7745 14.2857 13.2222 14.2857H7.43447C6.88769 14.2857 6.44444 13.8425 6.44444 13.2957Z" fill="#656CEE"/>
</svg>
